<mxfile host="app.diagrams.net" modified="2023-05-19T09:37:27.798Z" agent="Mozilla/5.0 (Macintosh; Intel Mac OS X 10_15_7) AppleWebKit/537.36 (KHTML, like Gecko) Chrome/112.0.0.0 Safari/537.36" etag="3YrBFTgzjewZaPwgA5XR" version="21.3.2" type="github" pages="2">
  <diagram name="Page-1" id="BH5HlDe2Fir8JQhBysGc">
    <mxGraphModel dx="5224" dy="2784" grid="1" gridSize="10" guides="1" tooltips="1" connect="1" arrows="0" fold="1" page="0" pageScale="1" pageWidth="827" pageHeight="1169" math="0" shadow="0">
      <root>
        <mxCell id="0" />
        <mxCell id="1" parent="0" />
        <mxCell id="KIWkJEksVJATDTYoHkve-2" value="" style="rounded=0;whiteSpace=wrap;html=1;labelBackgroundColor=none;fillColor=#FAE5C7;strokeColor=#0F8B8D;fontColor=#143642;" parent="1" vertex="1">
          <mxGeometry x="129" y="70" width="570" height="430" as="geometry" />
        </mxCell>
        <mxCell id="KIWkJEksVJATDTYoHkve-3" value="Username" style="text;fontColor=#143642;fontSize=16;verticalAlign=middle;strokeColor=none;fillColor=none;opacity=50;whiteSpace=wrap;html=1;labelBackgroundColor=none;" parent="1" vertex="1">
          <mxGeometry x="200" y="210" width="456" height="30" as="geometry" />
        </mxCell>
        <mxCell id="KIWkJEksVJATDTYoHkve-4" value="" style="dashed=0;shape=line;strokeWidth=2;noLabel=1;strokeColor=#0F8B8D;opacity=50;labelBackgroundColor=none;fillColor=#FAE5C7;fontColor=#143642;" parent="1" vertex="1">
          <mxGeometry x="200" y="235" width="456" height="10" as="geometry" />
        </mxCell>
        <mxCell id="KIWkJEksVJATDTYoHkve-5" value="Password" style="text;fontColor=#143642;fontSize=16;verticalAlign=middle;strokeColor=none;fillColor=none;opacity=50;whiteSpace=wrap;html=1;labelBackgroundColor=none;" parent="1" vertex="1">
          <mxGeometry x="200" y="280" width="456" height="30" as="geometry" />
        </mxCell>
        <mxCell id="KIWkJEksVJATDTYoHkve-6" value="" style="dashed=0;shape=line;strokeWidth=2;noLabel=1;strokeColor=#0F8B8D;opacity=50;labelBackgroundColor=none;fillColor=#FAE5C7;fontColor=#143642;" parent="1" vertex="1">
          <mxGeometry x="200" y="305" width="456" height="10" as="geometry" />
        </mxCell>
        <mxCell id="KIWkJEksVJATDTYoHkve-7" value="Login" style="whiteSpace=wrap;html=1;dashed=0;align=center;fontSize=12;shape=rect;fillColor=#FAE5C7;strokeColor=none;fontStyle=1;shadow=1;fontColor=#143642;labelBackgroundColor=none;" parent="1" vertex="1">
          <mxGeometry x="313.5" y="390" width="201" height="36" as="geometry" />
        </mxCell>
        <mxCell id="KIWkJEksVJATDTYoHkve-10" value="Reset Password" style="whiteSpace=wrap;html=1;dashed=0;align=center;fontSize=12;shape=rect;fillColor=none;strokeColor=none;fontStyle=1;fontColor=#143642;shadow=0;labelBackgroundColor=none;" parent="1" vertex="1">
          <mxGeometry x="556" y="340" width="100" height="36" as="geometry" />
        </mxCell>
        <mxCell id="KIWkJEksVJATDTYoHkve-15" value="Login for Doctors" style="text;html=1;align=center;verticalAlign=middle;resizable=0;points=[];autosize=1;strokeColor=none;fillColor=none;labelBackgroundColor=none;fontColor=#143642;" parent="1" vertex="1">
          <mxGeometry x="365" y="18" width="110" height="30" as="geometry" />
        </mxCell>
        <mxCell id="KIWkJEksVJATDTYoHkve-16" value="" style="rounded=0;whiteSpace=wrap;html=1;labelBackgroundColor=none;fillColor=#FAE5C7;strokeColor=#0F8B8D;fontColor=#143642;" parent="1" vertex="1">
          <mxGeometry x="129" y="672" width="570" height="430" as="geometry" />
        </mxCell>
        <mxCell id="KIWkJEksVJATDTYoHkve-17" value="Username" style="text;fontColor=#143642;fontSize=16;verticalAlign=middle;strokeColor=none;fillColor=none;opacity=50;whiteSpace=wrap;html=1;labelBackgroundColor=none;" parent="1" vertex="1">
          <mxGeometry x="200" y="812" width="456" height="30" as="geometry" />
        </mxCell>
        <mxCell id="KIWkJEksVJATDTYoHkve-18" value="" style="dashed=0;shape=line;strokeWidth=2;noLabel=1;strokeColor=#0F8B8D;opacity=50;labelBackgroundColor=none;fillColor=#FAE5C7;fontColor=#143642;" parent="1" vertex="1">
          <mxGeometry x="200" y="837" width="456" height="10" as="geometry" />
        </mxCell>
        <mxCell id="KIWkJEksVJATDTYoHkve-19" value="Password" style="text;fontColor=#143642;fontSize=16;verticalAlign=middle;strokeColor=none;fillColor=none;opacity=50;whiteSpace=wrap;html=1;labelBackgroundColor=none;" parent="1" vertex="1">
          <mxGeometry x="200" y="882" width="456" height="30" as="geometry" />
        </mxCell>
        <mxCell id="KIWkJEksVJATDTYoHkve-20" value="" style="dashed=0;shape=line;strokeWidth=2;noLabel=1;strokeColor=#0F8B8D;opacity=50;labelBackgroundColor=none;fillColor=#FAE5C7;fontColor=#143642;" parent="1" vertex="1">
          <mxGeometry x="200" y="907" width="456" height="10" as="geometry" />
        </mxCell>
        <mxCell id="KIWkJEksVJATDTYoHkve-21" value="Login" style="whiteSpace=wrap;html=1;dashed=0;align=center;fontSize=12;shape=rect;fillColor=#FAE5C7;strokeColor=none;fontStyle=1;shadow=1;fontColor=#143642;labelBackgroundColor=none;" parent="1" vertex="1">
          <mxGeometry x="200" y="1020" width="166.5" height="36" as="geometry" />
        </mxCell>
        <mxCell id="KIWkJEksVJATDTYoHkve-22" value="Reset Password" style="whiteSpace=wrap;html=1;dashed=0;align=center;fontSize=12;shape=rect;fillColor=none;strokeColor=none;fontStyle=1;fontColor=#143642;shadow=0;labelBackgroundColor=none;" parent="1" vertex="1">
          <mxGeometry x="556" y="942" width="100" height="36" as="geometry" />
        </mxCell>
        <mxCell id="KIWkJEksVJATDTYoHkve-23" value="Login for Patient" style="text;html=1;align=center;verticalAlign=middle;resizable=0;points=[];autosize=1;strokeColor=none;fillColor=none;labelBackgroundColor=none;fontColor=#143642;" parent="1" vertex="1">
          <mxGeometry x="365" y="620" width="110" height="30" as="geometry" />
        </mxCell>
        <mxCell id="KIWkJEksVJATDTYoHkve-25" value="Signup" style="whiteSpace=wrap;html=1;dashed=0;align=center;fontSize=12;shape=rect;fillColor=#FAE5C7;strokeColor=none;fontStyle=1;shadow=1;fontColor=#143642;labelBackgroundColor=none;" parent="1" vertex="1">
          <mxGeometry x="460" y="1020" width="166.5" height="36" as="geometry" />
        </mxCell>
      </root>
    </mxGraphModel>
  </diagram>
  <diagram id="cl8qsNsLndaFQttKoDL7" name="Page-2">
    <mxGraphModel dx="1306" dy="696" grid="1" gridSize="10" guides="1" tooltips="1" connect="1" arrows="1" fold="1" page="1" pageScale="1" pageWidth="827" pageHeight="1169" math="0" shadow="0">
      <root>
        <mxCell id="0" />
        <mxCell id="1" parent="0" />
      </root>
    </mxGraphModel>
  </diagram>
</mxfile>
